HIERARCHY
ROOT Hips
{
	OFFSET 0.000000 0.000000 0.000000
	CHANNELS 6 Xposition Yposition Zposition Zrotation Yrotation Xrotation 
	JOINT LHipJoint
	{
		OFFSET 0.000000 0.000000 0.000000
		CHANNELS 3 Zrotation Yrotation Xrotation
		JOINT LeftUpLeg
		{
			OFFSET 1.363060 -1.794630 0.839290
			CHANNELS 3 Zrotation Yrotation Xrotation
			JOINT LeftLeg
			{
				OFFSET 2.448110 -6.726130 0.000000
				CHANNELS 3 Zrotation Yrotation Xrotation
				JOINT LeftFoot
				{
					OFFSET 2.562200 -7.039590 0.000000
					CHANNELS 3 Zrotation Yrotation Xrotation
					JOINT LeftToeBase
					{
						OFFSET 0.157640 -0.433110 2.322550
						CHANNELS 3 Zrotation Yrotation Xrotation
						End Site
						{
							OFFSET 0.000000 0.000000 0.000000
						}
					}
				}
			}
		}
	}
	JOINT RHipJoint
	{
		OFFSET 0.000000 0.000000 0.000000
		CHANNELS 3 Zrotation Yrotation Xrotation
		JOINT RightUpLeg
		{
			OFFSET -1.305520 -1.794630 0.839290
			CHANNELS 3 Zrotation Yrotation Xrotation
			JOINT RightLeg
			{
				OFFSET -2.542530 -6.985550 0.000000
				CHANNELS 3 Zrotation Yrotation Xrotation
				JOINT RightFoot
				{
					OFFSET -2.568260 -7.056230 0.000000
					CHANNELS 3 Zrotation Yrotation Xrotation
					JOINT RightToeBase
					{
						OFFSET -0.164730 -0.452590 2.363150
						CHANNELS 3 Zrotation Yrotation Xrotation
						End Site
						{
							OFFSET 0.000000 0.000000 0.000000
						}
					}
				}
			}
		}
	}
}
MOTION
Frames: 11
Frame Time: 0.008333
1.420585 17.199316 1.006304 -43.016763 80.361345 -29.233521 -10.415754 -0.106387 3.476739 -0.897146 -4.061122 -43.692409 0.617328 2.162305 51.993614 3.290522 17.684052 -8.835300 0.104500 -0.000000 -22.143600 7.397247 -1.973145 4.273283 20.628645 8.016201 -4.865566 4.500627 2.445392 -3.161359 0.350798 3.780650 -6.048759 -0.023499 -0.000000 -0.456201
1.646506 17.180582 1.037735 -40.975954 80.309367 -27.144442 -10.286601 -0.218425 3.612036 -1.042592 -3.787664 -44.499677 0.467810 1.957879 48.660127 3.356749 17.699639 -8.461445 0.294900 -0.000000 -23.167400 7.387588 -2.013182 4.108722 20.514082 7.622113 -4.213047 4.480203 2.409392 -2.643302 0.337968 4.127413 -6.888846 179.999400 -0.000000 -0.299500
1.873793 17.156331 1.064082 -39.386296 80.174042 -25.530654 -10.193652 -0.340065 3.719158 -1.153117 -3.307374 -45.149850 0.317607 1.731603 45.091272 3.406182 17.645322 -7.971545 0.525200 -0.000000 -24.291000 7.341764 -2.069702 3.957244 20.508991 7.286824 -3.458241 4.473978 2.383474 -2.230910 0.314961 4.428196 -7.724187 -179.985400 0.000000 -1.241699
2.102527 17.126795 1.085457 -38.304276 79.973275 -24.452226 -10.133580 -0.466072 3.800690 -1.249230 -2.632226 -45.661759 0.160622 1.485800 41.324725 3.423724 17.452122 -7.402143 0.775901 0.000000 -25.457900 7.271234 -2.142251 3.810021 20.604939 6.963543 -2.610539 4.482361 2.364401 -1.902802 0.286869 4.711019 -8.554946 -179.976500 0.000000 -2.343200
2.332748 17.092428 1.102298 -37.692496 79.728099 -23.874787 -10.103565 -0.589742 3.860167 -1.360483 -1.778844 -46.059680 -0.012604 1.223298 37.398027 3.392743 17.046802 -6.787395 1.023000 -0.000000 -26.654700 7.186317 -2.229898 3.658578 20.779893 6.604025 -1.684214 4.504601 2.348592 -1.636900 0.259329 5.008795 -9.366072 -179.972900 0.000000 -3.515599
2.564588 17.053755 1.115196 -37.458772 79.460546 -23.708382 -10.100683 -0.704671 3.900911 -1.522940 -0.768306 -46.368377 -0.213908 0.946383 33.349049 3.296045 16.357315 -6.154390 1.240001 -0.000000 -27.911400 7.096277 -2.331945 3.495805 21.000844 6.163846 -0.694795 4.538864 2.332264 -1.414324 0.237984 5.356292 -10.129139 -179.974201 -0.000000 -4.618200
2.798038 17.011408 1.124870 -37.489393 79.191737 -23.843698 -10.120722 -0.806263 3.924696 -1.773095 0.373095 -46.606921 -0.455207 0.656383 29.216729 3.117415 15.321418 -5.511241 1.403500 -0.000000 -29.361400 7.010013 -2.447666 3.315575 21.228058 5.605175 0.346834 4.582330 2.311580 -1.222359 0.228904 5.787110 -10.806222 -179.981100 -0.000000 -5.492400
3.033127 16.966168 1.132002 -37.673168 78.939852 -24.174081 -10.157060 -0.893221 3.932250 -2.142920 1.612420 -46.789531 -0.747295 0.353790 25.053702 2.844759 13.888102 -4.882732 1.485700 0.000000 -30.912200 6.935471 -2.576328 3.115533 21.419514 4.906088 1.434624 4.631195 2.283313 -1.058042 0.237393 6.325715 -11.351505 -179.994500 0.000000 -5.937600
3.269990 16.918640 1.137087 -37.934539 78.715780 -24.622077 -10.201929 -0.968396 3.925118 -2.642803 2.905673 -46.929764 -1.091394 0.039610 20.920651 2.474470 12.045760 -4.240284 1.479700 -0.000000 -32.870800 6.878049 -2.716142 2.898824 21.541632 4.073245 2.564559 4.681348 2.245936 -0.928287 0.267192 6.977553 -11.722248 179.985499 0.000000 -5.786500
3.507762 16.869678 1.140666 -38.174015 78.535918 -25.118376 -10.243272 -1.037934 3.895161 -3.279186 4.203547 -46.992885 -1.483438 -0.283364 16.906362 2.013726 9.800449 -3.626406 1.366400 0.000000 -34.904500 6.848671 -2.864632 2.650157 21.546269 3.055078 3.770543 4.728443 2.196915 -0.849634 0.325999 7.789154 -11.877109 179.959200 -0.000000 -4.984100
3.747155 16.819742 1.142757 -38.408748 78.393438 -25.648429 -10.274701 -1.111794 3.854156 -3.998532 5.438043 -47.017877 -1.900233 -0.608866 13.107198 1.488786 7.231762 -3.007034 1.163600 0.000000 -37.403100 6.841230 -3.018000 2.394046 21.437373 1.951433 5.035684 4.768226 2.140469 -0.847456 0.411271 8.694412 -11.798212 179.930200 0.000000 -3.491600
